<svg xmlns="http://www.w3.org/2000/svg" width="109.346" height="109.346" viewBox="0 0 109.346 109.346">
  <g id="icons8-adobe-xd" transform="translate(-242.827 13)">
    <path id="Контур_161" data-name="Контур 161" d="M6,18.15A12.15,12.15,0,0,1,18.15,6H103.2a12.15,12.15,0,0,1,12.15,12.15V103.2a12.15,12.15,0,0,1-12.15,12.15H18.15A12.15,12.15,0,0,1,6,103.2Z" transform="translate(236.827 -19)" fill="#fff"/>
    <path id="Контур_162" data-name="Контур 162" d="M9,9v91.122h91.122V9ZM39.656,47.56,45.47,32.728h10L45.321,54.145,55.7,75.917H45.588l-5.932-15.1-5.9,15.1H23.64L34.022,54.145,23.847,32.728h10ZM57.808,58.892q0-7.891,2.67-11.776a8.834,8.834,0,0,1,7.773-3.885,7.5,7.5,0,0,1,6.169,3.2V30.359h8.453V75.92H75.249l-.386-3.262a7.73,7.73,0,0,1-6.646,3.857,8.764,8.764,0,0,1-7.7-3.857Q57.864,68.8,57.8,61.328V58.892ZM66.234,61q0,4.747,1.008,6.631a3.559,3.559,0,0,0,3.411,1.883,4.092,4.092,0,0,0,3.766-2.223V52.635a4,4,0,0,0-3.736-2.372A3.61,3.61,0,0,0,67.3,52.131Q66.237,54,66.234,58.777Z" transform="translate(242.939 -12.888)" fill="#2f2e41"/>
  </g>
</svg>
