<svg xmlns="http://www.w3.org/2000/svg" width="530.21" height="477.675" viewBox="0 0 530.21 477.675">
  <g id="undraw_well_done_i2wr" transform="translate(0 0)">
    <path id="Контур_163" data-name="Контур 163" d="M421.426,299.992c-9.117-27.253-37.271-42.4-55.792-36.2s-31.894,35.235-22.777,62.487c8.439,25.226,34.01,39.789,51.6,37.19a2,2,0,0,0-.246.715l-.538,4.486a2.021,2.021,0,0,0,2.688,2.143l9.061-3.249a2.021,2.021,0,0,0,.714-3.363l-3.266-3.122a2,2,0,0,0-.382-.275C418.178,352.347,429.883,325.273,421.426,299.992Z" transform="translate(-290.058 -178.823)" fill="#f2f2f2"/>
    <path id="Контур_164" data-name="Контур 164" d="M398.374,283.028a33.245,33.245,0,0,1,15.044,43.244c-.784,1.785,2.1,2.724,2.878.95a36.351,36.351,0,0,0-16.24-46.717C398.346,279.6,396.652,282.115,398.374,283.028Z" transform="translate(-300.011 -181.909)" fill="#fff"/>
    <path id="Контур_165" data-name="Контур 165" d="M867.426,251.992c-9.117-27.253-37.271-42.4-55.792-36.2s-31.894,35.235-22.777,62.487c8.439,25.226,34.01,39.789,51.6,37.19a2,2,0,0,0-.246.715l-.538,4.486a2.021,2.021,0,0,0,2.688,2.143l9.061-3.249a2.021,2.021,0,0,0,.714-3.363l-3.266-3.122a2,2,0,0,0-.382-.275C864.178,304.347,875.883,277.273,867.426,251.992Z" transform="translate(-366.947 -170.548)" fill="#f2f2f2"/>
    <path id="Контур_166" data-name="Контур 166" d="M844.374,235.028a33.245,33.245,0,0,1,15.044,43.244c-.784,1.785,2.1,2.724,2.878.95a36.351,36.351,0,0,0-16.24-46.717C844.346,231.6,842.652,234.115,844.374,235.028Z" transform="translate(-376.9 -173.634)" fill="#fff"/>
    <path id="Контур_167" data-name="Контур 167" d="M608.426,198.992c-9.117-27.253-37.271-42.4-55.792-36.2s-31.894,35.235-22.777,62.487c8.439,25.226,34.01,39.789,51.6,37.19a2,2,0,0,0-.246.715l-.538,4.486a2.021,2.021,0,0,0,2.688,2.143l9.061-3.249a2.021,2.021,0,0,0,.714-3.363l-3.266-3.122a2,2,0,0,0-.382-.275C605.178,251.347,616.883,224.273,608.426,198.992Z" transform="translate(-322.296 -161.411)" fill="#f2f2f2"/>
    <path id="Контур_168" data-name="Контур 168" d="M585.374,182.028a33.245,33.245,0,0,1,15.044,43.244c-.784,1.785,2.1,2.724,2.878.95a36.351,36.351,0,0,0-16.24-46.717C585.346,178.6,583.652,181.115,585.374,182.028Z" transform="translate(-332.249 -164.497)" fill="#fff"/>
    <circle id="Эллипс_37" data-name="Эллипс 37" cx="2.172" cy="2.172" r="2.172" transform="translate(238.232 164.373)" fill="#ccc"/>
    <circle id="Эллипс_38" data-name="Эллипс 38" cx="4.291" cy="4.291" r="4.291" transform="translate(231.484 247.265)" fill="#ccc"/>
    <circle id="Эллипс_39" data-name="Эллипс 39" cx="2.479" cy="2.479" r="2.479" transform="translate(161.463 234.366)" fill="#ccc"/>
    <circle id="Эллипс_40" data-name="Эллипс 40" cx="2.685" cy="2.685" r="2.685" transform="translate(198.924 193.358)" fill="#ccc"/>
    <circle id="Эллипс_41" data-name="Эллипс 41" cx="2.172" cy="2.172" r="2.172" transform="translate(331.559 351.585)" fill="#ccc"/>
    <circle id="Эллипс_42" data-name="Эллипс 42" cx="4.291" cy="4.291" r="4.291" transform="translate(258.309 302.686)" fill="#ccc"/>
    <circle id="Эллипс_43" data-name="Эллипс 43" cx="2.479" cy="2.479" r="2.479" transform="translate(308.98 249.825)" fill="#ccc"/>
    <circle id="Эллипс_44" data-name="Эллипс 44" cx="2.685" cy="2.685" r="2.685" transform="translate(325.079 302.702)" fill="#ccc"/>
    <ellipse id="Эллипс_45" data-name="Эллипс 45" cx="5.595" cy="17.821" rx="5.595" ry="17.821" transform="translate(445.216 422.629) rotate(-39.938)" fill="#2f2e41"/>
    <circle id="Эллипс_46" data-name="Эллипс 46" cx="35.643" cy="35.643" r="35.643" transform="translate(387.392 390.865)" fill="#2f2e41"/>
    <rect id="Прямоугольник_57" data-name="Прямоугольник 57" width="10.828" height="19.4" transform="translate(427.293 454.481)" fill="#2f2e41"/>
    <rect id="Прямоугольник_58" data-name="Прямоугольник 58" width="10.828" height="19.4" transform="translate(405.637 454.481)" fill="#2f2e41"/>
    <ellipse id="Эллипс_47" data-name="Эллипс 47" cx="9.023" cy="3.384" rx="9.023" ry="3.384" transform="translate(420.074 470.723)" fill="#2f2e41"/>
    <ellipse id="Эллипс_48" data-name="Эллипс 48" cx="9.023" cy="3.384" rx="9.023" ry="3.384" transform="translate(398.418 470.272)" fill="#2f2e41"/>
    <path id="Контур_169" data-name="Контур 169" d="M777.2,618.938c3.183-12.817,17.231-20.36,31.378-16.847s23.036,16.751,19.853,29.568S814.69,644.518,800.543,641,774.017,631.755,777.2,618.938Z" transform="translate(-365.357 -237.234)" fill="#e6e6e6"/>
    <ellipse id="Эллипс_49" data-name="Эллипс 49" cx="5.595" cy="17.821" rx="5.595" ry="17.821" transform="translate(364.391 407.386) rotate(-64.626)" fill="#2f2e41"/>
    <circle id="Эллипс_50" data-name="Эллипс 50" cx="11.883" cy="11.883" r="11.883" transform="translate(405.823 407.104)" fill="#fff"/>
    <circle id="Эллипс_51" data-name="Эллипс 51" cx="3.961" cy="3.961" r="3.961" transform="translate(408.861 410.767)" fill="#3f3d56"/>
    <path id="Контур_170" data-name="Контур 170" d="M790.126,696.731a7.922,7.922,0,1,1-15.588,2.838h0l0-.015c-.779-4.305,2.549-5.829,6.855-6.608S789.346,692.425,790.126,696.731Z" transform="translate(-364.964 -252.986)" fill="#fff"/>
    <ellipse id="Эллипс_52" data-name="Эллипс 52" cx="17.821" cy="5.595" rx="17.821" ry="5.595" transform="matrix(0.357, -0.934, 0.934, 0.357, 113.185, 414.243)" fill="#2f2e41"/>
    <circle id="Эллипс_53" data-name="Эллипс 53" cx="35.643" cy="35.643" r="35.643" transform="translate(56.187 390.865)" fill="#2f2e41"/>
    <rect id="Прямоугольник_59" data-name="Прямоугольник 59" width="10.828" height="19.4" transform="translate(75.588 454.481)" fill="#2f2e41"/>
    <rect id="Прямоугольник_60" data-name="Прямоугольник 60" width="10.828" height="19.4" transform="translate(97.244 454.481)" fill="#2f2e41"/>
    <ellipse id="Эллипс_54" data-name="Эллипс 54" cx="9.023" cy="3.384" rx="9.023" ry="3.384" transform="translate(75.588 470.723)" fill="#2f2e41"/>
    <ellipse id="Эллипс_55" data-name="Эллипс 55" cx="9.023" cy="3.384" rx="9.023" ry="3.384" transform="translate(97.244 470.272)" fill="#2f2e41"/>
    <circle id="Эллипс_56" data-name="Эллипс 56" cx="12.182" cy="12.182" r="12.182" transform="translate(80.551 405.303)" fill="#fff"/>
    <circle id="Эллипс_57" data-name="Эллипс 57" cx="4.061" cy="4.061" r="4.061" transform="translate(88.672 413.424)" fill="#3f3d56"/>
    <path id="Контур_171" data-name="Контур 171" d="M348.744,630.506c-2.878-12.889,6.322-25.913,20.548-29.089s28.092,4.7,30.97,17.586-6.55,17.643-20.777,20.819S351.622,643.395,348.744,630.506Z" transform="translate(-291.488 -237.145)" fill="#e6e6e6"/>
    <ellipse id="Эллипс_58" data-name="Эллипс 58" cx="5.595" cy="17.821" rx="5.595" ry="17.821" transform="translate(33.186 407.387) rotate(-64.626)" fill="#2f2e41"/>
    <path id="Контур_172" data-name="Контур 172" d="M369.476,691.4c0,3.488,8.982,10.377,18.949,10.377s19.312-9.821,19.312-13.31-9.345.677-19.312.677S369.476,687.911,369.476,691.4Z" transform="translate(-295.153 -252.033)" fill="#fff"/>
    <circle id="Эллипс_59" data-name="Эллипс 59" cx="35.643" cy="35.643" r="35.643" transform="translate(226.441 356.934)" fill="#2f2e41"/>
    <rect id="Прямоугольник_61" data-name="Прямоугольник 61" width="10.828" height="19.4" transform="translate(245.842 420.549)" fill="#2f2e41"/>
    <rect id="Прямоугольник_62" data-name="Прямоугольник 62" width="10.828" height="19.4" transform="translate(267.498 420.549)" fill="#2f2e41"/>
    <ellipse id="Эллипс_60" data-name="Эллипс 60" cx="9.023" cy="3.384" rx="9.023" ry="3.384" transform="translate(245.842 436.791)" fill="#2f2e41"/>
    <ellipse id="Эллипс_61" data-name="Эллипс 61" cx="9.023" cy="3.384" rx="9.023" ry="3.384" transform="translate(267.498 436.34)" fill="#2f2e41"/>
    <path id="Контур_173" data-name="Контур 173" d="M554.463,589.506c-2.878-12.889,6.322-25.913,20.548-29.089s28.092,4.7,30.97,17.586-6.55,17.643-20.777,20.819S557.341,602.395,554.463,589.506Z" transform="translate(-326.954 -230.076)" fill="#6c63ff"/>
    <ellipse id="Эллипс_62" data-name="Эллипс 62" cx="19.773" cy="6.207" rx="19.773" ry="6.207" transform="translate(277.732 382.211) rotate(-45.022)" fill="#2f2e41"/>
    <ellipse id="Эллипс_63" data-name="Эллипс 63" cx="6.207" cy="19.773" rx="6.207" ry="19.773" transform="translate(201.009 365.498) rotate(-44.978)" fill="#2f2e41"/>
    <path id="Контур_174" data-name="Контур 174" d="M835.975,349.005c-1.183-36.547-26.214-65.394-55.909-64.433-66.087,1.958-67.7,123.148-3.9,131.854l-1.351,10.738,19.706-.638L792.483,415.9C818.15,410.225,837.048,382.139,835.975,349.005Z" transform="translate(-357.201 -182.639)" fill="#ff6584"/>
    <path id="Контур_175" data-name="Контур 175" d="M748.822,378.127l-7.445.241a121.239,121.239,0,0,1-1.366-42.186l7.445-.241A93.285,93.285,0,0,0,748.822,378.127Z" transform="translate(-358.82 -191.499)" fill="#fff"/>
    <rect id="Прямоугольник_63" data-name="Прямоугольник 63" width="22.345" height="4.966" transform="matrix(0.999, -0.032, 0.032, 0.999, 415.96, 233.815)" fill="#3f3d56"/>
    <path id="Контур_176" data-name="Контур 176" d="M450.74,471.993l-2.249-1.053,55.294-187.512,2.249,1.054Z" transform="translate(-77.318 -48.862)" fill="#3f3d56"/>
    <path id="Контур_177" data-name="Контур 177" d="M891.5,382.082c13.5-33.981,2.068-70.422-25.542-81.394-61.375-24.584-111.23,85.888-56.2,119.339l-5.525,9.307,18.323,7.281,2.37-10.56C850.725,431.1,879.262,412.89,891.5,382.082Z" transform="translate(-366.966 -184.812)" fill="#6c63ff"/>
    <path id="Контур_178" data-name="Контур 178" d="M803.913,370.662l-6.922-2.751a121.242,121.242,0,0,1,15.587-39.224l6.922,2.751A93.28,93.28,0,0,0,803.913,370.662Z" transform="translate(-368.855 -190.249)" fill="#fff"/>
    <rect id="Прямоугольник_64" data-name="Прямоугольник 64" width="4.966" height="22.345" transform="translate(438.184 238.655) rotate(-68.328)" fill="#3f3d56"/>
    <path id="Контур_179" data-name="Контур 179" d="M450.231,468.355l-2.158-1.228,77.2-176.17,2.157,1.227Z" transform="translate(-77.246 -50.16)" fill="#3f3d56"/>
    <path id="Контур_180" data-name="Контур 180" d="M384.605,356.346c-14.61-33.52-48.532-51.071-75.767-39.2-60.681,26.25-17.38,139.452,45.123,123.953l2.715,10.477L374.75,443.7l-5.827-9.121C390.674,419.818,397.85,386.737,384.605,356.346Z" transform="translate(-279.671 -187.619)" fill="#6c63ff"/>
    <path id="Контур_181" data-name="Контур 181" d="M310.914,419.627l-6.828,2.976a121.237,121.237,0,0,1-16.864-38.692l6.828-2.976A93.283,93.283,0,0,0,310.914,419.627Z" transform="translate(-280.973 -199.256)" fill="#fff"/>
    <rect id="Прямоугольник_65" data-name="Прямоугольник 65" width="22.345" height="4.966" transform="matrix(0.917, -0.4, 0.4, 0.917, 71.498, 254.619)" fill="#3f3d56"/>
    <path id="Контур_182" data-name="Контур 182" d="M436.528,637.33h0a1.241,1.241,0,0,1-1.5-.906l-53.966-171,2.41-.6,53.966,171a1.241,1.241,0,0,1-.906,1.5Z" transform="translate(-297.15 -213.719)" fill="#3f3d56"/>
    <path id="Контур_183" data-name="Контур 183" d="M438.271,738.244H308.338a.828.828,0,1,1,0-1.655H438.271a.828.828,0,1,1,0,1.655Z" transform="translate(-284.471 -260.569)" fill="#ccc"/>
    <path id="Контур_184" data-name="Контур 184" d="M837.271,738.244H707.338a.828.828,0,1,1,0-1.655H837.271a.828.828,0,1,1,0,1.655Z" transform="translate(-353.257 -260.569)" fill="#ccc"/>
    <path id="Контур_185" data-name="Контур 185" d="M650.271,697.244H520.338a.828.828,0,1,1,0-1.655H650.271a.828.828,0,1,1,0,1.655Z" transform="translate(-321.019 -253.501)" fill="#ccc"/>
    <circle id="Эллипс_64" data-name="Эллипс 64" cx="12.182" cy="12.182" r="12.182" transform="translate(248.403 375.344)" fill="#fff"/>
    <circle id="Эллипс_65" data-name="Эллипс 65" cx="4.061" cy="4.061" r="4.061" transform="translate(256.524 383.465)" fill="#3f3d56"/>
    <path id="Контур_186" data-name="Контур 186" d="M602.951,656.023a7.922,7.922,0,0,1-15.588,2.838h0l0-.015c-.779-4.305,2.549-5.829,6.855-6.608S602.172,651.717,602.951,656.023Z" transform="translate(-332.696 -245.968)" fill="#fff"/>
  </g>
</svg>
