<svg id="undraw_Video_streaming_re_v3qg" xmlns="http://www.w3.org/2000/svg" width="511.094" height="442.891" viewBox="0 0 511.094 442.891">
  <path id="Контур_127" data-name="Контур 127" d="M292.091,720.244c-4.657,15.555,2.57,31.458,2.57,31.458s14.777-9.316,19.434-24.871-2.57-31.459-2.57-31.459S296.748,704.688,292.091,720.244Z" transform="translate(-241.468 -310.208)" fill="#f2f2f2"/>
  <path id="Контур_128" data-name="Контур 128" d="M291.81,720.432c3.919,15.757-4.049,31.3-4.049,31.3s-14.322-10-18.241-25.759,4.048-31.3,4.048-31.3S287.891,704.675,291.81,720.432Z" transform="translate(-234.117 -309.976)" fill="#f2f2f2"/>
  <path id="Контур_129" data-name="Контур 129" d="M420.868,627.3l2.964-7.624-28-15.061-4.374,11.253Z" transform="translate(-130.269 -201.202)" fill="#ffb8b8"/>
  <path id="Контур_130" data-name="Контур 130" d="M666.8,726.57a10.261,10.261,0,0,0-13.288,5.849l-2,5.14-3.083,7.933-.754,1.945,9.879,3.843,9.556-24.587Z" transform="translate(-360.318 -320.357)" fill="#2f2e41"/>
  <path id="Контур_131" data-name="Контур 131" d="M595.59,718.542l-1.289,3.419-3.217,8.533-.077.213c-8.2,1.053-17.183-1.011-25.494-4.219a103.626,103.626,0,0,1-9.758-4.354c-4.7-2.375-8.909-4.881-12.266-7.025-5.055-3.244-8.18-5.68-8.18-5.68s-.826.746-2.32,2.026c-2,1.714-5.2,4.389-9.256,7.539q-2.319,1.815-4.981,3.8c-13.078,9.7-29.862-16.184-29.862-16.184s4.72-3.005,5.953-3.589c3.971-1.879,13.3-6.312,21.347-10.251,4.146-2.033,7.948-3.938,10.5-5.293,9.038-4.812,20.273,4.293,20.273,4.293Z" transform="translate(-307.478 -307.113)" fill="#2f2e41"/>
  <path id="Контур_132" data-name="Контур 132" d="M595.59,718.542l-1.289,3.419-3.217,8.533-.077.213c-8.2,1.053-17.183-1.011-25.494-4.219a103.626,103.626,0,0,1-9.758-4.354c-4.7-2.375-8.909-4.881-12.266-7.025-5.055-3.244-8.18-5.68-8.18-5.68s-.826.746-2.32,2.026c-2,1.714-5.2,4.389-9.256,7.539q-2.319,1.815-4.981,3.8c-13.078,9.7-29.862-16.184-29.862-16.184s4.72-3.005,5.953-3.589c3.971-1.879,13.3-6.312,21.347-10.251,4.146-2.033,7.948-3.938,10.5-5.293,9.038-4.812,20.273,4.293,20.273,4.293Z" transform="translate(-307.478 -307.113)" opacity="0.14"/>
  <circle id="Эллипс_25" data-name="Эллипс 25" cx="114.971" cy="114.971" r="114.971" transform="translate(7.518 0)" fill="#6c63ff"/>
  <path id="Контур_133" data-name="Контур 133" d="M258.818,175.331A114.98,114.98,0,0,0,450.394,297.013,114.981,114.981,0,1,1,258.818,175.331Z" transform="translate(-221.221 -137.152)" opacity="0.2"/>
  <path id="Контур_134" data-name="Контур 134" d="M181.059,172.311h.316l5.685,325.961h-12Z" transform="translate(-58.255 -57.341)" fill="#3f3d56"/>
  <rect id="Прямоугольник_41" data-name="Прямоугольник 41" width="5.685" height="21.478" transform="translate(102.457 267.832) rotate(-62.234)" fill="#3f3d56"/>
  <path id="Контур_135" data-name="Контур 135" d="M727.427,780.232H217.667a.667.667,0,0,1,0-1.334h509.76a.667.667,0,0,1,0,1.334Z" transform="translate(-217 -338.004)" fill="#3f3d56"/>
  <path id="Контур_136" data-name="Контур 136" d="M431.948,606.222h-38.7a3.006,3.006,0,0,1-3-3V586.539a22.352,22.352,0,1,1,44.7,0V603.22A3.006,3.006,0,0,1,431.948,606.222Z" transform="translate(-274.652 -266.553)" fill="#2f2e41"/>
  <path id="Контур_137" data-name="Контур 137" d="M500.264,658.537a6.257,6.257,0,0,0-4.794,8.31l-10.523,9.679,4.322,7.829,14.669-13.877a6.29,6.29,0,0,0-3.673-11.941Z" transform="translate(-306.166 -297.916)" fill="#ffb8b8"/>
  <path id="Контур_138" data-name="Контур 138" d="M444.049,697.029q-.713,0-1.428-.062a16.814,16.814,0,0,1-13.543-9.045l-16.859-32.449a9.311,9.311,0,0,1,16.1-9.318l15.554,34.9,21.164-17.2,12.254,4.77L456.6,691.476a17,17,0,0,1-12.547,5.553Z" transform="translate(-281.615 -292.404)" fill="#ccc"/>
  <path id="Контур_139" data-name="Контур 139" d="M533.171,639.533l-18.75-18.75a3.5,3.5,0,0,0-4.946,0L492.607,637.65a3.5,3.5,0,0,0,0,4.946l17.519,17.519a3.5,3.5,0,0,0,4.76.173l18.1-15.636a3.5,3.5,0,0,0,.36-4.933Q533.262,639.623,533.171,639.533Z" transform="translate(-308.374 -285.046)" fill="#3f3d56"/>
  <path id="Контур_140" data-name="Контур 140" d="M315.365,526.588l-19.3-19.3-15.927,15.927,18.551,18.55Z" transform="translate(-93.223 -168.813)" fill="#f2f2f2"/>
  <circle id="Эллипс_26" data-name="Эллипс 26" cx="7.837" cy="7.837" r="7.837" transform="translate(196.374 347.718)" fill="#6c63ff"/>
  <path id="Контур_141" data-name="Контур 141" d="M524.306,653.767a7.837,7.837,0,0,0-7.984-13.1,7.837,7.837,0,1,1,7.112,13.807A7.893,7.893,0,0,0,524.306,653.767Z" transform="translate(-316.607 -291.533)" opacity="0.1"/>
  <path id="Контур_142" data-name="Контур 142" d="M516.951,648.544c-.935.878-.984,4.039.443,5.558s3.79.82,4.725-.058.087-1.6-1.34-3.122S517.885,647.665,516.951,648.544Z" transform="translate(-316.593 -294.546)" fill="#f2f2f2"/>
  <circle id="Эллипс_27" data-name="Эллипс 27" cx="2.322" cy="2.322" r="2.322" transform="translate(205.991 353.36)" fill="#2f2e41"/>
  <circle id="Эллипс_28" data-name="Эллипс 28" cx="2.322" cy="2.322" r="2.322" transform="translate(201.817 348.918)" fill="#2f2e41"/>
  <circle id="Эллипс_29" data-name="Эллипс 29" cx="0.581" cy="0.581" r="0.581" transform="translate(207.733 355.102)" fill="#f2f2f2"/>
  <circle id="Эллипс_30" data-name="Эллипс 30" cx="0.29" cy="0.29" r="0.29" transform="translate(208.274 353.963)" fill="#f2f2f2"/>
  <circle id="Эллипс_31" data-name="Эллипс 31" cx="0.29" cy="0.29" r="0.29" transform="translate(204.099 349.52)" fill="#f2f2f2"/>
  <circle id="Эллипс_32" data-name="Эллипс 32" cx="0.581" cy="0.581" r="0.581" transform="translate(203.559 350.659)" fill="#f2f2f2"/>
  <path id="Контур_143" data-name="Контур 143" d="M417.8,642.45l3.541-7.374-26.756-17.168-5.226,10.883Z" transform="translate(-129.57 -205.625)" fill="#ffb8b8"/>
  <path id="Контур_144" data-name="Контур 144" d="M664.7,744.4a10.261,10.261,0,0,0-13.7,4.811l-2.389,4.971-3.683,7.673-.9,1.882,9.555,4.591L665,744.548Z" transform="translate(-359.106 -326.186)" fill="#2f2e41"/>
  <path id="Контур_145" data-name="Контур 145" d="M572.1,732l-1.548,3.309-3.863,8.26-.093.207c-8.253.42-17.054-2.329-25.094-6.165a103.613,103.613,0,0,1-9.394-5.091c-4.5-2.729-8.507-5.551-11.69-7.947-4.791-3.623-7.72-6.292-7.72-6.292s-.881.681-2.469,1.842c-2.128,1.555-5.525,3.977-9.808,6.806q-2.452,1.631-5.258,3.4C481.379,739,461.776,749.558,445.1,751.786c-29.284,3.917-22.392-35.163-22.392-35.163l23.306-12.1,9.9,2.008,11.016,2.229,3.9.794s.741-.28,2.015-.767c4.1-1.568,13.745-5.271,22.072-8.581,4.29-1.708,8.227-3.316,10.876-4.47,9.381-4.1,19.883,5.838,19.883,5.838Z" transform="translate(-285.22 -309.998)" fill="#2f2e41"/>
  <path id="Контур_146" data-name="Контур 146" d="M355.286,768.493a6.257,6.257,0,0,0,4.358-8.547l10.009-10.21-4.721-7.6L351,756.758a6.29,6.29,0,0,0,4.286,11.735Z" transform="translate(-260.443 -325.772)" fill="#ffb8b8"/>
  <circle id="Эллипс_33" data-name="Эллипс 33" cx="15.604" cy="15.604" r="15.604" transform="translate(127.821 309.206)" fill="#ffb8b8"/>
  <path id="Контур_147" data-name="Контур 147" d="M401.533,657.714l13.593,38.536-.082.135c-1.891,3.125-2.508,5.646-1.787,7.29a3.177,3.177,0,0,0,2.014,1.737l32.166-22.483-1.126-9.011.063-.1c3.109-4.975,4.116-9.48,2.993-13.389a12.922,12.922,0,0,0-6.135-7.4l-.112-.088-16.043-19.527-21.446,3.81Z" transform="translate(-278.408 -289.59)" fill="#ccc"/>
  <path id="Контур_148" data-name="Контур 148" d="M366.012,727.381l-9.106-11.207,21.951-36.237L389.092,648.3l.317.1-.317-.1a12.708,12.708,0,1,1,22.661,10.967l-18.789,28.15Z" transform="translate(-263.557 -291.618)" fill="#ccc"/>
  <path id="Контур_149" data-name="Контур 149" d="M445.87,591.2H422.207l-.243-3.4-1.213,3.4h-3.644l-.481-6.734-2.4,6.734h-7.051v-.334a17.7,17.7,0,0,1,17.681-17.682h3.336a17.7,17.7,0,0,1,17.681,17.681Z" transform="translate(-280.284 -269.548)" fill="#2f2e41"/>
  <path id="Контур_150" data-name="Контур 150" d="M420.508,616.022a3.071,3.071,0,0,1-.531-.047l-17.327-3.057V584.281h19.075l-.472.551c-6.57,7.663-1.62,20.088,1.915,26.812a2.958,2.958,0,0,1-.235,3.141A2.99,2.99,0,0,1,420.508,616.022Z" transform="translate(-278.779 -273.24)" fill="#2f2e41"/>
  <circle id="Эллипс_34" data-name="Эллипс 34" cx="76.064" cy="76.064" r="76.064" transform="translate(316.357 140.577)" fill="#3f3d56"/>
  <path id="Контур_151" data-name="Контур 151" d="M775.991,397.616v64.715a1.666,1.666,0,0,0,2.5,1.536l51.3-32.358a1.833,1.833,0,0,0,0-3.05l-51.3-32.358a1.651,1.651,0,0,0-2.5,1.514Z" transform="translate(-403.017 -210.541)" fill="#f2f2f2"/>
</svg>
