<svg id="undraw_Powerful_re_frhr" xmlns="http://www.w3.org/2000/svg" width="661" height="378.144" viewBox="0 0 661 378.144">
  <ellipse id="Эллипс_23" data-name="Эллипс 23" cx="165.868" cy="138.706" rx="165.868" ry="138.706" transform="translate(223.11)" fill="#f2f2f2"/>
  <path id="Контур_104" data-name="Контур 104" d="M265.961,654.073a32.192,32.192,0,0,0,26.853-3.956c9.405-6.6,12.354-17.477,14.754-27.548l7.1-29.786-14.858,8.555c-10.685,6.153-21.611,12.5-29.009,21.414s-10.628,21.077-4.683,30.719" transform="translate(-172.412 -318.712)" fill="#e6e6e6"/>
  <path id="Контур_105" data-name="Контур 105" d="M267.984,715.862c-1.5-9.16-3.05-18.438-2-27.7a39.479,39.479,0,0,1,10.044-22.838,43.632,43.632,0,0,1,11.656-8.833c1.166-.615,2.238.93,1.078,1.542a38.478,38.478,0,0,0-17.084,17.238c-3.719,7.911-4.317,16.535-3.676,24.939.388,5.082,1.209,10.131,2.037,15.174a.917.917,0,0,1-.746,1.1,1.113,1.113,0,0,1-1.314-.624Z" transform="translate(-173.165 -344.438)" fill="#f2f2f2"/>
  <path id="Контур_106" data-name="Контур 106" d="M408.733,722.619a17.63,17.63,0,0,0,14.567,4.528c6.9-.979,12.1-5.615,16.75-9.988l13.757-12.935-10.254.625c-7.374.449-14.935.938-21.644,3.536s-12.491,7.8-12.892,13.975" transform="translate(-214.392 -363.812)" fill="#e6e6e6"/>
  <path id="Контур_107" data-name="Контур 107" d="M392.141,748.809c2.418-4.866,4.856-9.8,8.566-14.1a29.174,29.174,0,0,1,12.811-8.808,30.315,30.315,0,0,1,8.776-1.533c.785-.022.78,1,0,1.018a27.725,27.725,0,0,0-14.342,4.357,34.432,34.432,0,0,0-10.4,11.376c-1.561,2.592-2.9,5.273-4.229,7.951a.653.653,0,0,1-.745.36.51.51,0,0,1-.431-.623Z" transform="translate(-209.606 -371.964)" fill="#f2f2f2"/>
  <path id="Контур_108" data-name="Контур 108" d="M289.28,716.49c3.93,4.995,10.691,7.913,17.836,7.7,9.029-.358,16.556-5.628,23.332-10.631l20.042-14.8-13.265-.53c-9.539-.382-19.324-.738-28.409,1.722s-17.465,8.38-19.126,16.244" transform="translate(-179.976 -361.275)" fill="#e6e6e6"/>
  <path id="Контур_109" data-name="Контур 109" d="M262.905,746.373c7.238-10.71,15.634-22.613,30.636-26.418a40.575,40.575,0,0,1,12.886-1.113c1.368.1,1.026,1.862-.339,1.764a36.569,36.569,0,0,0-20.564,4.55A49.036,49.036,0,0,0,271.39,737.91c-2.34,2.98-4.437,6.087-6.534,9.19C264.186,748.092,262.227,747.376,262.905,746.373Z" transform="translate(-172.336 -369.683)" fill="#f2f2f2"/>
  <path id="Контур_110" data-name="Контур 110" d="M700.722,454.974c14.392-6.615,32.3-5.287,47.811-.765s29.559,11.932,44.617,17.412c46.016,16.746,101.477,14.046,144.859-7.053,4.1,7.981-.3,17.109-5.133,24.8s-10.345,16.022-8.355,24.548c2.547,10.91,16.226,17.452,21.768,27.555,5.261,9.591,2.437,20.855-1.6,30.853s-9.274,20.071-8.589,30.607,9.84,21.679,22.459,21.687c-18.7,2.43-37.769,4.861-56.458,2.371s-37.28-10.756-45.958-24.82c-4.337-7.03-6.009-15.112-10.99-21.837-8.484-11.454-24.767-16.84-40.13-20.9s-31.8-7.97-42.621-17.956c-10.307-9.514-13.571-22.768-19.031-34.766-9.2-20.085-25.17-37.5-45.979-50.142" transform="translate(-297.56 -261.095)" fill="#6c63ff"/>
  <path id="Контур_111" data-name="Контур 111" d="M711.816,372.845c-5.052-1.965-11.255-2.61-16.4-.783s-8.646,6.508-6.983,10.65c.754,1.878,2.47,3.726,1.8,5.623-.515,1.46-2.31,2.424-4.074,3.11s-3.693,1.262-4.968,2.418-1.541,3.146.052,4.043c.525.3,1.181.435,1.69.747a2.026,2.026,0,0,1,.829,2.513,5.518,5.518,0,0,1-2.029,2.233c-1.809,1.3-4.2,2.8-3.637,4.649a3.7,3.7,0,0,0,2.632,2.059,15.49,15.49,0,0,0,3.863.426l53.367,1.406a24.128,24.128,0,0,0,5.269-.246,6.392,6.392,0,0,0,4.138-2.325c1.022-1.582.351-3.53-.911-5.008a52.412,52.412,0,0,0-4.524-4c-1.476-1.356-2.684-3.05-2.423-4.8.208-1.4,1.315-2.616,2.109-3.891s1.256-2.868.227-4.041c-1.45-1.653-4.931-1.5-6.58-3.044-1.244-1.162-1-2.836-1.128-4.335-.3-3.605-3.283-7.011-7.532-8.592a17.4,17.4,0,0,0-13.492.768Z" transform="translate(-291.978 -228.815)" fill="#2f2e41"/>
  <path id="Контур_112" data-name="Контур 112" d="M539,601.664l-8.358-2.1,5.709-27.96,12.336,3.1Z" transform="translate(-152.889 -231.326)" fill="#a0616a"/>
  <path id="Контур_113" data-name="Контур 113" d="M666.789,757.54l-26.951-6.771.1-.285c1.74-4.845,7.848-7.593,13.642-6.137h0l16.461,4.136Z" transform="translate(-280.978 -379.891)" fill="#2f2e41"/>
  <path id="Контур_114" data-name="Контур 114" d="M647.969,603.358h-8.728l-4.152-28.151h12.881Z" transform="translate(-182.982 -232.784)" fill="#a0616a"/>
  <path id="Контур_115" data-name="Контур 115" d="M780.656,760.344H752.515v-.3c0-5.059,4.9-9.16,10.953-9.159h17.188Z" transform="translate(-313.443 -382.695)" fill="#2f2e41"/>
  <path id="Контур_116" data-name="Контур 116" d="M742.458,638.366a3.088,3.088,0,0,1-3.162-2.255l-12.958-67.6a2.343,2.343,0,0,0-2.168-1.739,2.591,2.591,0,0,0-2.593,1.27L688,635.631a3.44,3.44,0,0,1-3.971,1.514l-12.126-3.381a2.641,2.641,0,0,1-2.112-3.132l27.514-101.81a3,3,0,0,1,2.4-2.019l36.9-7.163a3.762,3.762,0,0,1,2.639.458c24.3,14.763,22.244,63,17.716,115.369a3,3,0,0,1-3.057,2.485l-11.306.412Z" transform="translate(-289.586 -289.084)" fill="#2f2e41"/>
  <ellipse id="Эллипс_24" data-name="Эллипс 24" cx="17.485" cy="14.621" rx="17.485" ry="14.621" transform="translate(404.328 153.535)" fill="#a0616a"/>
  <path id="Контур_117" data-name="Контур 117" d="M717.877,503.319a33.078,33.078,0,0,1-12.119-2.342l-.13-.051-.052-.112-15.682-33.978-.3-5.9a13.018,13.018,0,0,1,5.026-10.676,18.9,18.9,0,0,1,12.835-4.053l16.649.784c8.926.424,15.92,6.579,15.972,14.055.432.695,3.5,6.127-2.515,11.231-.225,1.162-2.33,13.244,5.614,19.887l.223.187-.2.208C743.08,492.691,732.876,503.318,717.877,503.319Z" transform="translate(-295.31 -259.383)" fill="#3f3d56"/>
  <path id="Контур_118" data-name="Контур 118" d="M758.247,528.689a6.688,6.688,0,0,0,4.286-3.579,5.13,5.13,0,0,0-.53-5.046l16.629-16.1-13.109-1.427-13.781,15.507c-3.029,1.7-4.061,5.023-2.4,7.738S754.827,529.747,758.247,528.689Z" transform="translate(-312.301 -282.19)" fill="#a0616a"/>
  <path id="Контур_119" data-name="Контур 119" d="M764.584,495.091a3.658,3.658,0,0,1-1.757-.44l-8.225-4.511a2.426,2.426,0,0,1-1-3.61l5.954-8.365a3.206,3.206,0,0,0,.421-3.035,4.051,4.051,0,0,0-2.431-2.282l-17.1-6.413c-4.333-1.645-6.729-5.576-5.775-9.474h0a8.917,8.917,0,0,1,5.555-5.912,11.933,11.933,0,0,1,8.99.106l25.95,11.12a12.01,12.01,0,0,1,7.047,7.49,9.948,9.948,0,0,1-2.2,9.351l-12.828,14.865A3.427,3.427,0,0,1,764.584,495.091Z" transform="translate(-308.241 -261.017)" fill="#3f3d56"/>
  <path id="Контур_120" data-name="Контур 120" d="M701.377,398.918c5.522-.371,10.106-4.984,9.532-9.591-.134,3.931,3.277,7.322,7.931,7.885,2.533.233,5.309-.407,7.514.661,2.442,1.183,3.223,4.057,5.767,5.08a5.9,5.9,0,0,0,6.794-2.4c1.214-2.042.916-4.495.111-6.673-2.334-6.32-8.461-11.154-16.141-12.735a25.6,25.6,0,0,0-21.367,5.011c-2.322,1.953-4.165,4.442-4.464,7.184a6.812,6.812,0,0,0,4.167,6.95Z" transform="translate(-297.452 -232.84)" fill="#2f2e41"/>
  <path id="Контур_121" data-name="Контур 121" d="M641.689,342.835A6.212,6.212,0,0,1,645.3,346.9a5.267,5.267,0,0,1-1.405,4.927l13.639,17.957-13.217-.189L633.4,352.571a5.336,5.336,0,0,1-1.024-7.948,8.113,8.113,0,0,1,9.318-1.787Z" transform="translate(-278.442 -217.259)" fill="#a0616a"/>
  <path id="Контур_122" data-name="Контур 122" d="M654.3,363.7l17.565,34.707,18.416,26.113a7.243,7.243,0,0,1,.708,7.363,9.618,9.618,0,0,1-6.489,5.013h0c-4.8,1.191-9.923-.721-12.067-4.506l-35.492-63.419a2.283,2.283,0,0,1-.035-2.206,3.067,3.067,0,0,1,1.957-1.48l11.508-3.091a3.842,3.842,0,0,1,.671-.117A3.3,3.3,0,0,1,654.3,363.7Z" transform="translate(-280.055 -225.342)" fill="#3f3d56"/>
  <path id="Контур_123" data-name="Контур 123" d="M674.631,766.8H136.449a.6.6,0,1,1,0-1.191H674.631a.6.6,0,1,1,0,1.191Z" transform="translate(-135.737 -388.652)" fill="#ccc"/>
  <path id="Контур_124" data-name="Контур 124" d="M733.019,240.2v48.815a.723.723,0,0,1-1.424,0V240.2a.723.723,0,0,1,1.424,0Z" transform="translate(-307.415 -175.782)" fill="#ccc"/>
  <path id="Контур_125" data-name="Контур 125" d="M811.78,309.48l-20.135,16.838a.814.814,0,0,1-1.007,0,.529.529,0,0,1,0-.842l20.135-16.838a.814.814,0,0,1,1.007,0A.529.529,0,0,1,811.78,309.48Z" transform="translate(-324.366 -203.649)" fill="#ccc"/>
  <path id="Контур_126" data-name="Контур 126" d="M644.686,309.48l20.135,16.838a.814.814,0,0,0,1.007,0,.529.529,0,0,0,0-.842l-20.135-16.838a.814.814,0,0,0-1.007,0,.529.529,0,0,0,0,.842Z" transform="translate(-282.315 -203.649)" fill="#ccc"/>
</svg>
