<svg xmlns="http://www.w3.org/2000/svg" width="109.19" height="109.19" viewBox="0 0 109.19 109.19">
  <path id="icons8-html-5_1_" data-name="icons8-html-5 (1)" d="M112.956,2.77A2.8,2.8,0,0,0,110.994,2H7.125a2.8,2.8,0,0,0-1.963.77,2.187,2.187,0,0,0-.685,1.817l9.357,93.585a2.467,2.467,0,0,0,1.921,2.077L58.322,111.1a2.677,2.677,0,0,0,.727.093,2.731,2.731,0,0,0,.727-.093l42.6-10.849a2.48,2.48,0,0,0,1.921-2.077l9.347-93.585A2.188,2.188,0,0,0,112.956,2.77Zm-22.4,32.267H40.543l1.194,12.082H89.351L85.779,82.826,59.038,90.04l-.26-.074L32.349,82.817,30.906,68.269h12.95l.561,5.647,14.778,2.763L73.7,73.916l1.547-15.281H29.94L26.42,23.493H91.709Z" transform="translate(-4.464 -2)" fill="#2f2e41"/>
</svg>
