<svg xmlns="http://www.w3.org/2000/svg" xmlns:xlink="http://www.w3.org/1999/xlink" width="1329" height="685" viewBox="0 0 1329 685">
  <defs>
    <clipPath id="clip-path">
      <rect id="Прямоугольник_2" data-name="Прямоугольник 2" width="1329" height="685" transform="translate(0 1083)" fill="#fff"/>
    </clipPath>
  </defs>
  <g id="Группа_масок_1" data-name="Группа масок 1" transform="translate(0 -1083)" clip-path="url(#clip-path)">
    <g id="undraw_Hiking_re_k0bc" transform="translate(310.485 1083)">
      <path id="Контур_1" data-name="Контур 1" d="M1162.331,943.081s-.541-11.267-11.633-9.958" transform="translate(-1083.085 -337.718)" fill="#3f3d56"/>
      <ellipse id="Эллипс_1" data-name="Эллипс 1" cx="5.552" cy="5.517" rx="5.552" ry="5.517" transform="translate(76.829 583.607)" fill="#6c63ff"/>
      <rect id="Прямоугольник_3" data-name="Прямоугольник 3" width="1.567" height="10.902" transform="translate(81.717 598.415)" fill="#3f3d56"/>
      <path id="Контур_2" data-name="Контур 2" d="M242.953,409.7q0,4.139.27,8.208a123.725,123.725,0,0,0,11.723,45.141c.052.121.113.234.165.346.314.657.636,1.315.966,1.963a122.656,122.656,0,0,0,6.658,11.677,125.905,125.905,0,0,0,103.189,57.709l-1.245,71.133-16.232-8.494-2.9,5.475,19.008,9.947-2.324,132.111-.026,1.764,12.55,2.776-.026-1.773-3.951-212.931a125.853,125.853,0,0,0,88.776-38.386c.792-.813,1.575-1.652,2.341-2.482.035-.035.061-.069.087-.1a125.131,125.131,0,0,0,22.925-35.255c-.122.138-.252.268-.374.407,26.233-60.964.05-131.681-59.688-161.208-.435-.216-.879-.424-1.314-.64-59.014-28.249-129.965-6.843-163.217,49.241-.766,1.28-1.506,2.586-2.22,3.9A123.812,123.812,0,0,0,242.953,409.7Z" transform="translate(213.189 -135.581)" fill="#e5e5e5"/>
      <ellipse id="Эллипс_2" data-name="Эллипс 2" cx="164.965" cy="163.94" rx="164.965" ry="163.94" transform="translate(308.119 0)" fill="#6c63ff"/>
      <path id="Контур_3" data-name="Контур 3" d="M620.584,147.147c35.816,83.259-3.066,179.609-86.847,215.2A165.689,165.689,0,0,1,345.7,320.657c35.812,83.262,132.763,121.908,216.547,86.318s122.671-131.938,86.858-215.2a163.825,163.825,0,0,0-28.523-44.627Z" transform="translate(-25.694 -92.706)" opacity="0.2"/>
      <path id="Контур_4" data-name="Контур 4" d="M327.575,694.913l16.85-4.7-.035-1.8-5.048-272.7-.252-13.6-.009-.4-.879-47.641-1.279-69.057v-.009l-.87-46.811h-.461l-.888,50.712-1.158,66-.827,46.837v.346l-.035,1.929v.009l-1.6,91.295-.165,9.073L327.61,693.1Z" transform="translate(136.582 -74.266)" fill="#3f3d56"/>
      <path id="Контур_27" data-name="Контур 27" d="M-.021,8.118l30.776-.079.021-8.118L0,0Z" transform="translate(469.863 431.381) rotate(-152.234)" fill="#3f3d56"/>
      <rect id="Прямоугольник_5" data-name="Прямоугольник 5" width="77.785" height="1.73" transform="translate(476.316 653.65)" fill="#cbcbcb"/>
      <rect id="Прямоугольник_6" data-name="Прямоугольник 6" width="77.785" height="1.73" transform="translate(333.579 683.058)" fill="#cbcbcb"/>
      <rect id="Прямоугольник_7" data-name="Прямоугольник 7" width="77.785" height="1.73" transform="translate(111.64 660.569)" fill="#cbcbcb"/>
      <path id="Контур_5" data-name="Контур 5" d="M1061.391,902.79V852.473S1041.659,888.146,1061.391,902.79Z" transform="translate(-914.223 -312.606)" fill="#f1f1f1"/>
      <path id="Контур_6" data-name="Контур 6" d="M1000.635,910.157l37.3-34.028S998.146,885.808,1000.635,910.157Z" transform="translate(-854.686 -319.981)" fill="#f1f1f1"/>
      <path id="Контур_7" data-name="Контур 7" d="M504.645,920.385V870.068S484.913,905.74,504.645,920.385Z" transform="translate(28.088 -318.092)" fill="#f1f1f1"/>
      <path id="Контур_8" data-name="Контур 8" d="M443.889,927.751l37.3-34.028S441.4,903.4,443.889,927.751Z" transform="translate(87.625 -325.467)" fill="#f1f1f1"/>
      <path id="Контур_9" data-name="Контур 9" d="M700.322,967.618v-62.57S675.785,949.408,700.322,967.618Z" transform="translate(-301.623 -328.998)" fill="#f1f1f1"/>
      <path id="Контур_10" data-name="Контур 10" d="M624.772,976.778l46.38-42.314S621.677,946.5,624.772,976.778Z" transform="translate(-227.589 -338.169)" fill="#f1f1f1"/>
      <path id="Контур_11" data-name="Контур 11" d="M133.217,898.017l.479,1.669,146.071-41.344L389.8,882.448l140.727,23.89.192-.052L597.375,887.7l16.85-4.7,51.464-14.358,42.926,9.506,12.55,2.776,27.285,6.046.374-1.687-27.686-6.132-12.5-2.768-43-9.523-.209.052L614.19,881.2l-16.78,4.679-66.965,18.683-140.3-23.812L279.714,856.56l-.218.052Z" transform="translate(-133.217 -267.051)" fill="#cbcbcb"/>
      <path id="Контур_12" data-name="Контур 12" d="M874.881,216.6l-11.136-8.851c8.651-.949,12.206,3.74,13.66,7.451,6.758-2.789,14.116.866,14.116.866L869.24,224.1A16.765,16.765,0,0,1,874.881,216.6Z" transform="translate(-613.55 -111.56)" fill="#3f3d56"/>
      <path id="Контур_13" data-name="Контур 13" d="M284.2,211.568l-11.136-8.851c8.651-.949,12.206,3.74,13.66,7.451,6.759-2.789,14.116.866,14.116.866l-22.281,8.039A16.765,16.765,0,0,1,284.2,211.568Z" transform="translate(386.194 -109.992)" fill="#3f3d56"/>
      <path id="Контур_14" data-name="Контур 14" d="M839.691,456.637l-11.136-8.851c8.651-.949,12.206,3.74,13.66,7.451,6.758-2.789,14.116.866,14.116.866l-22.281,8.039a16.764,16.764,0,0,1,5.641-7.5Z" transform="translate(-553.991 -186.398)" fill="#3f3d56"/>
      <path id="Контур_15" data-name="Контур 15" d="M525.146,931.034l-8.511,3.142-16.247-31.129,12.562-4.638Z" transform="translate(-163.817 -280.098)" fill="#ffb7b7"/>
      <path id="Контур_16" data-name="Контур 16" d="M760.008,1008.679l-16.762,6.189h0a11.3,11.3,0,0,0-6.713,14.56l.129.345,27.443-10.133Z" transform="translate(-397.54 -361.307)" fill="#2f2e41"/>
      <path id="Контур_17" data-name="Контур 17" d="M634.73,942.809h-9.079l-4.32-34.8h13.4Z" transform="translate(-357.16 -283.09)" fill="#ffb7b7"/>
      <path id="Контур_18" data-name="Контур 18" d="M891.325,1022.338H873.443a11.36,11.36,0,0,0-11.4,11.323v.369h29.276Z" transform="translate(-612.179 -365.565)" fill="#2f2e41"/>
      <path id="Контур_19" data-name="Контур 19" d="M794.241,673.227l-2.962-5.888L766.1,679.851l.741,5.152-4.814,6.256s-8.147,4.416-6.665,19.136l1.481,13.984,1.851,18.032-12.96,44.528-6.665,58.88-4.814,47.472,23.329-1.1,21.477-77.28,37.771,83.168,25.921-6.624L807.2,809.019l-4.444-34.592s2.962-18.4-11.109-30.912l2.222-6.624v-8.163l7.406-38.941Z" transform="translate(-475.1 -254.887)" fill="#2f2e41"/>
      <path id="Контур_28" data-name="Контур 28" d="M-.1,59.675h.87L.87,0H0Z" transform="translate(304.377 560.137) rotate(-164.249)" opacity="0.2"/>
      <rect id="Прямоугольник_9" data-name="Прямоугольник 9" width="36.289" height="3.68" transform="translate(282.11 487.524)" fill="#3f3d56"/>
      <ellipse id="Эллипс_3" data-name="Эллипс 3" cx="1.481" cy="3.68" rx="1.481" ry="3.68" transform="translate(280.629 486.052)" fill="#3f3d56"/>
      <path id="Контур_29" data-name="Контур 29" d="M18.871,38.665A19.8,19.8,0,0,0,38.569,18.9,19.555,19.555,0,0,0,18.974-.76,19.8,19.8,0,0,0-.724,19,19.555,19.555,0,0,0,18.871,38.665Z" transform="translate(290.924 417.303) rotate(-118.663)" fill="#ffb7b7"/>
      <ellipse id="Эллипс_5" data-name="Эллипс 5" cx="17.464" cy="17.356" rx="17.464" ry="17.356" transform="translate(311.219 349.893)" fill="#2f2e41"/>
      <path id="Контур_20" data-name="Контур 20" d="M791.534,598.956a17.284,17.284,0,0,1-4.73,17.555,17.491,17.491,0,0,1-29.338-10.437,17.469,17.469,0,0,0,34.068-7.117Z" transform="translate(-440.688 -233.567)" fill="#2f2e41"/>
      <path id="Контур_21" data-name="Контур 21" d="M805.726,620.89a20.507,20.507,0,0,0,12.945,21.405,20.726,20.726,0,0,0,24.16-6.872,20.419,20.419,0,0,0-.411-24.97,20.731,20.731,0,0,0-24.373-6.083c-3.449-2.764-7.725-1.907-11.2,1.01-3.931,3.3-5.1,5.564-8.146,10.989C801.7,616.786,802.727,620.471,805.726,620.89Z" transform="translate(-523.874 -234.729)" fill="#2f2e41"/>
      <path id="Контур_22" data-name="Контур 22" d="M792.225,701.278c-.221,5.814-.659,17.258-.659,17.842,0,.615-8.73,18.579-12.5,26.31v0c-.268.545-.509,1.039-.722,1.474a3.509,3.509,0,0,1-3.223,1.968l-16.482-.294a3.5,3.5,0,0,1-3.452-3.4l-1.838-72.062a1.775,1.775,0,0,1,.508-1.289,1.8,1.8,0,0,1,1.283-.538h21.255a4.781,4.781,0,0,1,4.3,2.682l10.2,20.975a13.337,13.337,0,0,1,1.33,6.332Z" transform="translate(-437.808 -256.118)" fill="#6c63ff"/>
      <path id="Контур_23" data-name="Контур 23" d="M829.8,741.719a47.128,47.128,0,0,1-11.261-9.459,51.743,51.743,0,0,1-13.017-30.176c-.838-9.577,1.074-16.7,5.683-21.159,5.859-5.673,13.834-4.849,14.17-4.811l.357.04,5.4,4.543-1.529,1.8-4.834-4.065c-1.48-.074-7.521-.089-11.934,4.2-4.062,3.949-5.73,10.426-4.958,19.252a49.413,49.413,0,0,0,12.366,28.748,45.756,45.756,0,0,0,10.7,9.03Z" transform="translate(-512.71 -257.603)" fill="#6c63ff"/>
      <path id="Контур_30" data-name="Контур 30" d="M-.036,29.393H.748L.784,0H0Z" transform="matrix(-0.201, -0.98, 0.98, -0.201, 319.125, 463.384)" fill="#3f3d56"/>
      <path id="Контур_31" data-name="Контур 31" d="M0,.789,45.578.777V-.012L0,0Z" transform="translate(329.863 460.724) rotate(-92.337)" fill="#3f3d56"/>
      <path id="Контур_24" data-name="Контур 24" d="M766.5,713.363c-.221,5.814-.659,17.258-.659,17.842,0,.615-8.73,18.579-12.5,26.31l7.03-40.565a8.957,8.957,0,0,1,5.843-6.9A13.085,13.085,0,0,1,766.5,713.363Z" transform="translate(-412.088 -268.204)" fill="#3f3d56"/>
      <path id="Контур_25" data-name="Контур 25" d="M826.149,825.141A6.878,6.878,0,0,0,823.89,814.8l1.429-15.707-9.393-3.191-1.7,22.209a6.917,6.917,0,0,0,2.821,8.78A7.011,7.011,0,0,0,826.149,825.141Z" transform="translate(-514.924 -294.969)" fill="#ffb7b7"/>
      <path id="Контур_26" data-name="Контур 26" d="M828.368,695.43a10.769,10.769,0,0,0-7.33-11.021,9.9,9.9,0,0,0-6.19.005,10.772,10.772,0,0,0-7.34,10.248l-.7,79.767,16.644.6Z" transform="translate(-510.996 -260.055)" fill="#cbcbcb"/>
    </g>
  </g>
</svg>
