<svg xmlns="http://www.w3.org/2000/svg" width="396.49" height="334.893" viewBox="0 0 396.49 334.893">
  <g id="undraw_Co_workers_re_1i6i" transform="translate(0)">
    <path id="Контур_52" data-name="Контур 52" d="M837.766,354.635q.7,2.727,1.308,5.482H700.648v-5.482Z" transform="translate(-446.614 -240.05)" fill="#e6e6e6"/>
    <path id="Контур_53" data-name="Контур 53" d="M931.117,308.584a169.409,169.409,0,0,0-7.782-18.436q-1.364-2.769-2.833-5.482c-.161-.31-.333-.621-.5-.931v40.8H931.96V311.012Z" transform="translate(-544.377 -208.45)" fill="#e6e6e6"/>
    <path id="Контур_54" data-name="Контур 54" d="M923.335,290.9H920v-5.482h.5Q921.974,288.126,923.335,290.9Z" transform="translate(-544.377 -209.198)" fill="#ccc"/>
    <path id="Контур_55" data-name="Контур 55" d="M688.765,180.65H677.646v5.482h11.962v-3.054Z" transform="translate(-302.025 -80.515)" fill="#ccc"/>
    <rect id="Прямоугольник_25" data-name="Прямоугольник 25" width="11.959" height="47.34" transform="translate(357.184 68.743)" fill="#e6e6e6"/>
    <rect id="Прямоугольник_26" data-name="Прямоугольник 26" width="11.959" height="5.481" transform="translate(357.184 76.218)" fill="#ccc"/>
    <rect id="Прямоугольник_27" data-name="Прямоугольник 27" width="11.959" height="5.481" transform="translate(357.184 100.136)" fill="#ccc"/>
    <path id="Контур_56" data-name="Контур 56" d="M773.415,271.435h-42.9a2.5,2.5,0,0,0-2.494,2.494v42.9a2.579,2.579,0,0,0,.105.721,2.5,2.5,0,0,0,2.389,1.774h42.9a2.5,2.5,0,0,0,2.389-1.774,2.574,2.574,0,0,0,.105-.721v-42.9A2.5,2.5,0,0,0,773.415,271.435Z" transform="translate(-458.812 -202.968)" fill="#e6e6e6"/>
    <path id="Контур_57" data-name="Контур 57" d="M772.818,276.935H736.012a2.5,2.5,0,0,0-2.494,2.494v36.806a2.5,2.5,0,0,0,2.494,2.494h36.806a2.5,2.5,0,0,0,2.494-2.494V279.429A2.5,2.5,0,0,0,772.818,276.935Z" transform="translate(-461.264 -205.419)" fill="#fff"/>
    <path id="Контур_58" data-name="Контур 58" d="M771.56,288.515H747.592a2.5,2.5,0,0,0-2.494,2.494v23.968a2.5,2.5,0,0,0,2.494,2.494h23.968a2.507,2.507,0,0,0,2.494-2.494V291.009A2.5,2.5,0,0,0,771.56,288.515Z" transform="translate(-466.425 -210.58)" fill="#ccc"/>
    <path id="Контур_59" data-name="Контур 59" d="M767.23,319.529l-5.062-8.768a1.109,1.109,0,0,0-1.92,0l-3.7,6.4-4.848-8.4a1.109,1.109,0,0,0-1.92,0l-5.063,8.769L738.7,327.967h11.615l-1.151,1.993h24.09Z" transform="translate(-463.572 -219.359)" fill="#fff"/>
    <circle id="Эллипс_17" data-name="Эллипс 17" cx="3.488" cy="3.488" r="3.488" transform="translate(298.383 79.706)" fill="#fff"/>
    <path id="Контур_60" data-name="Контур 60" d="M936.375,416.9q-.058-3.226-.255-6.419c-.055-1.02-.122-2.034-.2-3.049h-23.4a2.5,2.5,0,0,0-2.494,2.494v42.9a2.266,2.266,0,0,0,.072.582,2.5,2.5,0,0,0,2.422,1.912h21.573c.111-.632.216-1.275.31-1.912.061-.377.122-.759.177-1.136.133-.9.26-1.807.377-2.711q.25-1.846.449-3.708.732-6.677.942-13.5v-.006q.075-2.569.077-5.161v-6.652C936.419,419.325,936.408,418.111,936.375,416.9Z" transform="translate(-539.929 -263.582)" fill="#e6e6e6"/>
    <path id="Контур_61" data-name="Контур 61" d="M938.826,419.354q-.058-3.226-.255-6.419H918.012a2.5,2.5,0,0,0-2.494,2.494v36.806a2.5,2.5,0,0,0,2.494,2.494h19.013c.133-.9.26-1.807.377-2.711q.25-1.846.449-3.708.732-6.677.942-13.5v-.006q.075-2.569.077-5.161V423C938.871,421.776,938.86,420.562,938.826,419.354Z" transform="translate(-542.381 -266.034)" fill="#fff"/>
    <path id="Контур_62" data-name="Контур 62" d="M943.988,424.515h-14.4a2.5,2.5,0,0,0-2.494,2.494v23.968a2.5,2.5,0,0,0,2.494,2.494h13.42q.732-6.677.942-13.5v-.006q.075-2.569.077-5.161v-6.652C944.032,426.937,944.021,425.723,943.988,424.515Z" transform="translate(-547.542 -271.195)" fill="#ccc"/>
    <path id="Контур_63" data-name="Контур 63" d="M941.1,448.752q-.208,6.818-.942,13.5-.2,1.862-.449,3.708h-8.547l1.153-1.99H920.7l3.547-6.147,2.472-4.285,5.066-8.769a1.1,1.1,0,0,1,1.918,0l4.85,8.4Z" transform="translate(-544.689 -279.973)" fill="#fff"/>
    <path id="Контур_64" data-name="Контур 64" d="M801.027,224.377H700.648V218.9h95.4Q798.593,221.581,801.027,224.377Z" transform="translate(-446.614 -179.551)" fill="#e6e6e6"/>
    <path id="Контур_65" data-name="Контур 65" d="M796.838,160.2q6.136,3.376,11.962,7.234v26.795H796.838Z" transform="translate(-489.485 -153.388)" fill="#e6e6e6"/>
    <rect id="Прямоугольник_28" data-name="Прямоугольник 28" width="11.959" height="5.481" transform="translate(307.353 24.891)" fill="#ccc"/>
    <path id="Контур_66" data-name="Контур 66" d="M842.06,190.948v12.716H830.1V181.375q4.182,3.051,8.176,6.347Q840.186,189.3,842.06,190.948Z" transform="translate(-504.309 -162.828)" fill="#e6e6e6"/>
    <path id="Контур_67" data-name="Контур 67" d="M842.06,196.051v2.25H830.1v-5.477h8.176Q840.186,194.4,842.06,196.051Z" transform="translate(-504.309 -167.931)" fill="#ccc"/>
    <path id="Контур_68" data-name="Контур 68" d="M759.454,148.613q4.748,2.137,9.334,4.556l-2.461,4.967-8.176,16.524-2.433,4.911-3.808,7.688-.837,1.691-3.409-1.691-7.306-3.62,4.64-9.379H745l2.428-4.911,8.182-16.524,2.406-4.856.028-.055Z" transform="translate(-464.312 -147.915)" fill="#e6e6e6"/>
    <path id="Контур_69" data-name="Контур 69" d="M538.674,5.3l-2.433,4.917-10.715-5.31L527.932.055,527.959,0l1.408.7Z" transform="translate(-234.226)" fill="#ccc"/>
    <rect id="Прямоугольник_29" data-name="Прямоугольник 29" width="5.481" height="11.959" transform="matrix(0.444, -0.896, 0.896, 0.444, 280.686, 26.349)" fill="#ccc"/>
    <path id="Контур_70" data-name="Контур 70" d="M841.081,490.385c-.094.637-.2,1.28-.31,1.912-.194,1.2-.4,2.383-.632,3.57H700.648v-5.482Z" transform="translate(-446.614 -300.553)" fill="#e6e6e6"/>
    <rect id="Прямоугольник_30" data-name="Прямоугольник 30" width="11.959" height="47.34" transform="translate(307.353 143.988)" fill="#e6e6e6"/>
    <rect id="Прямоугольник_31" data-name="Прямоугольник 31" width="11.959" height="5.481" transform="translate(307.353 151.463)" fill="#ccc"/>
    <rect id="Прямоугольник_32" data-name="Прямоугольник 32" width="11.959" height="5.481" transform="translate(307.353 175.382)" fill="#ccc"/>
    <rect id="Прямоугольник_33" data-name="Прямоугольник 33" width="11.959" height="47.34" transform="translate(325.79 143.988)" fill="#e6e6e6"/>
    <rect id="Прямоугольник_34" data-name="Прямоугольник 34" width="11.959" height="5.481" transform="translate(325.79 151.463)" fill="#ccc"/>
    <rect id="Прямоугольник_35" data-name="Прямоугольник 35" width="11.959" height="5.481" transform="translate(325.79 175.382)" fill="#ccc"/>
    <rect id="Прямоугольник_36" data-name="Прямоугольник 36" width="47.34" height="11.959" transform="matrix(0.444, -0.896, 0.896, 0.444, 276.044, 186.217)" fill="#e6e6e6"/>
    <rect id="Прямоугольник_37" data-name="Прямоугольник 37" width="5.481" height="11.959" transform="matrix(0.444, -0.896, 0.896, 0.444, 291.299, 155.403)" fill="#ccc"/>
    <rect id="Прямоугольник_38" data-name="Прямоугольник 38" width="5.481" height="11.959" transform="matrix(0.444, -0.896, 0.896, 0.444, 280.687, 176.839)" fill="#ccc"/>
    <path id="Контур_71" data-name="Контур 71" d="M522.018,507.089a10.967,10.967,0,0,1,1.425.977l49.349-15.358,2.783-12.243L594.6,482.25l-2.82,22.154a8.337,8.337,0,0,1-6.967,7.182l-58.076,9.194a10.94,10.94,0,1,1-4.72-13.69Z" transform="translate(-359.719 -296.132)" fill="#ffb8b8"/>
    <path id="Контур_72" data-name="Контур 72" d="M655.453,466.64l-.327-5.587v-.006l-.089-1.53-.964-16.452a13.011,13.011,0,0,0-11.823-14.052,12.83,12.83,0,0,0-2.96.078,13.05,13.05,0,0,0-11.169,11.74l-2,8.326-3.5,14.562a4.666,4.666,0,0,0,2.406,5.255,4.586,4.586,0,0,0,1.735.51l5.831.521,5.615.5,6.48.576.466.039,1.2.111,4.008.355h.011a4.7,4.7,0,0,0,4.551-2.483A4.57,4.57,0,0,0,655.453,466.64Z" transform="translate(-411.778 -273.177)" fill="#6c63ff"/>
    <path id="Контур_73" data-name="Контур 73" d="M716.646,332.415c0,18.971-17.542,16.1-39.181,16.1s-39.181,2.869-39.181-16.1,8.569-52.6,39.181-52.6C709.132,279.815,716.646,313.443,716.646,332.415Z" transform="translate(-418.818 -206.703)" fill="#2f2e41"/>
    <circle id="Эллипс_18" data-name="Эллипс 18" cx="26.365" cy="26.365" r="26.365" transform="translate(221.232 115.416) rotate(-45)" fill="#ffb8b8"/>
    <path id="Контур_74" data-name="Контур 74" d="M713.078,419.813a16.272,16.272,0,0,0-1.613-1.364,17.139,17.139,0,0,0-12.544-3.32l-48.584,6.147A17.25,17.25,0,0,0,635.287,440c.139,1.552.294,3.187.466,4.889.222,2.134.471,4.373.759,6.69.477,3.9,1.059,8.01,1.752,12.195.6,3.6,1.292,7.256,2.079,10.864q.341,1.563.709,3.115a.02.02,0,0,0,.006.017c.028.128.055.255.089.377a.041.041,0,0,0,.006.028q.516,2.162,1.081,4.274c.144.521.283,1.037.427,1.547.388,1.386.8,2.744,1.22,4.08,3.165,9.939,7.35,18.4,12.876,22.9.072.067.144.122.222.183l.222.172.321-.1,1.364-.4,1.164-.355,15.166-4.562,3.775-1.136,12.128-3.653h.005l11.092-3.337,1.352-.41,9.528-2.866.3-3.559.41-4.723.244-2.838,1.929-22.383,1.125-13.059,1.22-14.179a17.226,17.226,0,0,0-5.249-13.957Z" transform="translate(-417.448 -266.948)" fill="#2f2e41"/>
    <path id="Контур_75" data-name="Контур 75" d="M725.374,589.1c-.128-.371-.25-.743-.377-1.109-5.7-16.629-14.1-29.206-26.468-36.057-.005,0-.005-.005-.011-.005l-.211-.116-10.776,3.73-1.33.46-1.386.482-.017.006-10.088,3.492-.017.006-7.915,2.738h-.006l-7.322,2.533h-.005l-1.7.593-12.8,4.429-1.486.516-1.33.46-.205.072-.039.632-.915,16.03-.061,1.109-1.142,20-37.92,53.717h25.941a170.936,170.936,0,0,0,26-1.985l24.3-26.224a1.612,1.612,0,0,1,2.739.8l3.575,17.738a171.406,171.406,0,0,0,48.779-26.839C731.477,612.539,728.983,599.984,725.374,589.1Z" transform="translate(-402.579 -327.932)" fill="#2f2e41"/>
    <path id="Контур_76" data-name="Контур 76" d="M653.776,329.028H664.2l4.6-12.881.92,12.881h4.984l2.684-7.514.537,7.514h37.034a27.91,27.91,0,0,0-27.91-27.91h-5.367a27.91,27.91,0,0,0-27.91,27.91Z" transform="translate(-425.723 -216.197)" fill="#2f2e41"/>
    <path id="Контур_77" data-name="Контур 77" d="M488.355,577.879a12.631,12.631,0,0,1-17.216-8.874l-44.6-5.051,14.951-17.9,40.063,7.542a12.7,12.7,0,0,1,6.8,24.287Z" transform="translate(-324.442 -325.363)" fill="#a0616a"/>
    <path id="Контур_78" data-name="Контур 78" d="M442.986,488.722l-18.852-3.37-1.369-.244a7.878,7.878,0,0,1-6.158-10.027l9.257-30.758.277-.915A17.888,17.888,0,1,0,391.635,434l-11.807,48.186-.438,1.785a24.078,24.078,0,0,0,21.158,29.711c.039.006.072.006.111.011l7.067.626,9.168.815,11.53,1.025,10.759.959a5.639,5.639,0,0,0,6.064-4.645c.017-.078.028-.155.039-.233l2.284-17.05.022-.155a5.637,5.637,0,0,0-4.606-6.313Z" transform="translate(-303.121 -269.346)" fill="#ccc"/>
    <path id="Контур_79" data-name="Контур 79" d="M393.945,286.441c-7.526,14.8-13.457,30.057-30.057,30.057a30.057,30.057,0,1,1,0-60.113C380.759,256.173,407.952,258.9,393.945,286.441Z" transform="translate(-283.124 -196.255)" fill="#2f2e41"/>
    <path id="Контур_80" data-name="Контур 80" d="M403.315,654.342l-.682-6.807-.51.028L312.5,651.881l.233,6.89.394,11.8a171.174,171.174,0,0,0,45.669,24.86l.582-4.512a1.61,1.61,0,0,1,3.148-.2l1.768,6.591a169.237,169.237,0,0,0,44.117,7.988Z" transform="translate(-273.616 -370.594)" fill="#2f2e41"/>
    <circle id="Эллипс_19" data-name="Эллипс 19" cx="26.365" cy="26.365" r="26.365" transform="translate(44.958 94.463) rotate(-45)" fill="#a0616a"/>
    <path id="Контур_81" data-name="Контур 81" d="M404.786,528.137l-5.227-16.23-.089-.277-.266-.831-1.491-4.623c-.482-1.5-.942-3.01-1.369-4.523q-.59-2.045-1.1-4.1-.732-2.86-1.33-5.743a142.292,142.292,0,0,1-2.7-19.583q-.183-2.736-.261-5.482a141.7,141.7,0,0,1,3.01-33.43,45.334,45.334,0,0,0-22.36-49.095,44.575,44.575,0,0,0-18.092-5.427c-.438-.033-.876-.061-1.319-.089a44.878,44.878,0,0,0-36,14.556,45.771,45.771,0,0,0-6.275,8.691A45.146,45.146,0,0,0,304.75,430.6l6.23,41.833-1.419,17.61L307.888,510.8l-.089,1.109-1.785,22.128a4.819,4.819,0,0,0,3.038,4.878,4.716,4.716,0,0,0,1.774.338c.089,0,.172,0,.261-.005l88.55-4.761.809-.044a4.825,4.825,0,0,0,4.34-6.3Z" transform="translate(-269.937 -250.737)" fill="#ccc"/>
    <path id="Контур_82" data-name="Контур 82" d="M399.861,280.1a35.858,35.858,0,0,1-20.493,6.333,21.974,21.974,0,0,0,8.71,3.583,72.306,72.306,0,0,1-29.535.166,19.116,19.116,0,0,1-6.183-2.124,7.825,7.825,0,0,1-3.816-5.1c-.648-3.7,2.237-7.065,5.234-9.332a38.609,38.609,0,0,1,32.444-6.483c3.624.937,7.255,2.52,9.609,5.43s3.051,7.4.809,10.395Z" transform="translate(-289.641 -200.537)" fill="#2f2e41"/>
    <path id="Контур_83" data-name="Контур 83" d="M393.692,568.807a12.631,12.631,0,0,1-17.4-8.5l-44.7-4.085L346.146,538l40.217,6.673a12.7,12.7,0,0,1,7.329,24.134Z" transform="translate(-282.124 -321.775)" fill="#a0616a"/>
    <path id="Контур_84" data-name="Контур 84" d="M347.3,480.368l-10.1-1.58L327,477.192a7.877,7.877,0,0,1-6.375-9.889l8.847-31.872a18,18,0,0,0-8.891-20.6,17.884,17.884,0,0,0-25.808,11.94l-11.158,50.225a24.092,24.092,0,0,0,21.9,29.256l38.6,2.589a5.646,5.646,0,0,0,5.964-4.773c.017-.078.022-.155.033-.233l1.912-17.095.017-.155A5.642,5.642,0,0,0,347.3,480.368Z" transform="translate(-260.489 -265.947)" fill="#ccc"/>
    <path id="Контур_85" data-name="Контур 85" d="M678.79,486.472l-2.313,1.262-28.5,15.549-2.313,1.262a4.831,4.831,0,0,0-1.925,6.547l21.221,38.894a4.831,4.831,0,0,0,6.547,1.925l.006,0,33.112-18.067.006,0a4.831,4.831,0,0,0,1.925-6.547L685.338,488.4a4.831,4.831,0,0,0-6.547-1.925Z" transform="translate(-420.988 -298.547)" fill="#e6e6e6"/>
    <path id="Контур_86" data-name="Контур 86" d="M680.573,488.808l-2.74,1.495-27.645,15.083-2.74,1.495a3.44,3.44,0,0,0-1.371,4.662L667.3,550.438a3.44,3.44,0,0,0,4.662,1.371l.006,0,33.112-18.067.006,0a3.44,3.44,0,0,0,1.371-4.662l-21.221-38.894a3.44,3.44,0,0,0-4.662-1.37Z" transform="translate(-422.105 -299.664)" fill="#fff"/>
    <path id="Контур_87" data-name="Контур 87" d="M698.9,508.619a.809.809,0,0,0-1.092-.321l-1.1.6-11.247,6.136a.8.8,0,0,0,.77,1.413l12.35-6.74a.809.809,0,0,0,.322-1.092Z" transform="translate(-439.657 -308.493)" fill="#e6e6e6"/>
    <path id="Контур_88" data-name="Контур 88" d="M704.159,510.05a.8.8,0,0,0-1.086-.316l-15.26,8.326a.8.8,0,0,0,.771,1.408l.71-.388,4.44-2.422h.006l10.1-5.515a.8.8,0,0,0,.322-1.092Z" transform="translate(-440.707 -309.132)" fill="#e6e6e6"/>
    <path id="Контур_89" data-name="Контур 89" d="M674.085,527.021l-4.845-8.885a.389.389,0,0,0-.526-.15l-2.35,1.28-1.219.665L658.6,523.5l-1.269.693a.389.389,0,0,0-.15.527l.31.571,4.534,8.315a.384.384,0,0,0,.521.15l7.816-4.263,1.22-.665,2.35-1.28a.386.386,0,0,0,.155-.527Z" transform="translate(-427.218 -312.833)" fill="#e6e6e6"/>
    <path id="Контур_90" data-name="Контур 90" d="M706.42,528.958a.8.8,0,0,0-1.086-.321l-16.751,9.14a.8.8,0,0,0-.4.848.673.673,0,0,0,.083.244.816.816,0,0,0,.161.205l.005.006a.81.81,0,0,0,.926.111l16.751-9.141a.8.8,0,0,0,.316-1.092Z" transform="translate(-441.05 -317.559)" fill="#e6e6e6"/>
    <path id="Контур_91" data-name="Контур 91" d="M711.675,530.39a.8.8,0,0,0-1.092-.316L690.922,540.8a.784.784,0,0,0-.4.837v.005a.67.67,0,0,0,.083.244.776.776,0,0,0,.166.211.792.792,0,0,0,.926.111l19.661-10.726a.807.807,0,0,0,.322-1.092Z" transform="translate(-442.092 -318.198)" fill="#e6e6e6"/>
    <circle id="Эллипс_20" data-name="Эллипс 20" cx="3.409" cy="3.409" r="3.409" transform="translate(238.513 222.298)" fill="#e6e6e6"/>
    <path id="Контур_92" data-name="Контур 92" d="M696.79,459.472l-2.313,1.262-28.5,15.549-2.313,1.262a4.831,4.831,0,0,0-1.925,6.547l21.222,38.894a4.831,4.831,0,0,0,6.547,1.925l.006,0,33.112-18.067.006,0a4.831,4.831,0,0,0,1.925-6.547L703.338,461.4A4.831,4.831,0,0,0,696.79,459.472Z" transform="translate(-429.011 -286.513)" fill="#ccc"/>
    <path id="Контур_93" data-name="Контур 93" d="M698.573,461.808l-2.74,1.495-27.645,15.083-2.74,1.495a3.44,3.44,0,0,0-1.371,4.662L685.3,523.438a3.44,3.44,0,0,0,4.662,1.371l.006,0,33.112-18.067.006,0a3.44,3.44,0,0,0,1.371-4.662l-21.221-38.894a3.44,3.44,0,0,0-4.662-1.371Z" transform="translate(-430.128 -287.63)" fill="#fff"/>
    <path id="Контур_94" data-name="Контур 94" d="M716.9,481.619a.809.809,0,0,0-1.092-.321l-5.687,3.1-1.586.865-5.077,2.772a.8.8,0,1,0,.77,1.413l5.987-3.265,1.253-.687,5.111-2.788a.809.809,0,0,0,.322-1.092Z" transform="translate(-447.68 -296.459)" fill="#ccc"/>
    <path id="Контур_95" data-name="Контур 95" d="M722.159,483.05a.8.8,0,0,0-1.086-.316l-7.932,4.329-1.22.665-6.108,3.331a.8.8,0,0,0,.771,1.408l6.108-3.331,1.22-.665,7.926-4.329a.8.8,0,0,0,.322-1.092Z" transform="translate(-448.729 -297.098)" fill="#ccc"/>
    <path id="Контур_96" data-name="Контур 96" d="M692.085,500.021l-3.864-7.084-.665-1.219-.316-.582a.389.389,0,0,0-.526-.15l-7.843,4.279-3.542,1.929a.389.389,0,0,0-.15.527l.316.576.344.637.322.582v.006l3.863,7.084a.384.384,0,0,0,.521.15l11.385-6.208a.386.386,0,0,0,.155-.527Z" transform="translate(-435.241 -300.8)" fill="#6c63ff"/>
    <path id="Контур_97" data-name="Контур 97" d="M724.418,501.959a.8.8,0,0,0-1.086-.321l-5.005,2.733-1.219.665-4.834,2.633-5.693,3.11a.8.8,0,0,0,.771,1.414l10.526-5.743,1.219-.665,5.005-2.733a.8.8,0,0,0,.316-1.092Z" transform="translate(-449.07 -305.525)" fill="#ccc"/>
    <path id="Контур_98" data-name="Контур 98" d="M729.675,503.39a.8.8,0,0,0-1.092-.316l-7.91,4.318-1.219.665L708.922,513.8a.8.8,0,1,0,.77,1.408l10.526-5.743,1.22-.665,7.915-4.318A.807.807,0,0,0,729.675,503.39Z" transform="translate(-450.115 -306.164)" fill="#ccc"/>
    <circle id="Эллипс_21" data-name="Эллипс 21" cx="3.409" cy="3.409" r="3.409" transform="translate(248.49 207.332)" fill="#ccc"/>
    <path id="Контур_99" data-name="Контур 99" d="M691.328,520.471a10.959,10.959,0,0,1,1.7.3l38.663-34.3-2.5-12.3,18.076-6.2,6.543,21.352a8.337,8.337,0,0,1-3.4,9.412l-49.152,32.271a10.939,10.939,0,1,1-9.934-10.537Z" transform="translate(-437.138 -290.564)" fill="#ffb8b8"/>
    <path id="Контур_100" data-name="Контур 100" d="M792.61,449.723,781.657,428.8a13.013,13.013,0,0,0-16.2-8.06c-.122.033-.238.072-.36.116a13.041,13.041,0,0,0-8.016,16.59l4.4,23.12a4.682,4.682,0,0,0,2.262,3.182,4.573,4.573,0,0,0,2.1.621,4.51,4.51,0,0,0,1.79-.249l2.35-.82,15.088-5.255L790,456.33a4.7,4.7,0,0,0,2.611-6.607Z" transform="translate(-471.444 -269.242)" fill="#6c63ff"/>
    <path id="Контур_101" data-name="Контур 101" d="M604.866,618.194H242.906a.554.554,0,1,1,0-1.109H604.866a.554.554,0,1,1,0,1.109Z" transform="translate(-242.352 -357.023)" fill="#3f3d56"/>
    <path id="Контур_102" data-name="Контур 102" d="M355.848,600.585v.277a9.708,9.708,0,0,0,5.781,8.869,9.552,9.552,0,0,0,3.919.831h89.52v-9.977Z" transform="translate(-292.937 -349.669)" fill="#3f3d56"/>
    <path id="Контур_103" data-name="Контур 103" d="M551,473.768a18.066,18.066,0,0,0-6.33-7.217,17.721,17.721,0,0,0-3.963-1.962,17.945,17.945,0,0,0-5.925-1H448.863A18.036,18.036,0,0,0,430.848,481.6v49.887a17.394,17.394,0,0,0,.122,2.1,18.165,18.165,0,0,0,.632,3.071,17.709,17.709,0,0,0,1.142,2.871,18,18,0,0,0,16.119,9.977H534.78a18.008,18.008,0,0,0,18.015-18.015V481.6A17.859,17.859,0,0,0,551,473.768Z" transform="translate(-326.364 -288.608)" fill="#3f3d56"/>
    <circle id="Эллипс_22" data-name="Эллипс 22" cx="4.434" cy="4.434" r="4.434" transform="translate(165.734 213.501)" fill="#fff"/>
  </g>
</svg>
