<svg xmlns="http://www.w3.org/2000/svg" width="109.188" height="109.188" viewBox="0 0 109.188 109.188">
  <g id="icons8-javascript_1_" data-name="icons8-javascript (1)" transform="translate(-6 -6)">
    <path id="Контур_152" data-name="Контур 152" d="M6,115.188V6H115.188V115.188Z" transform="translate(0 0)" fill="#2f2e41"/>
    <path id="Контур_153" data-name="Контур 153" d="M58.417,55.2c2.1,3.409,4.38,6.676,9.211,6.676,4.058,0,6.187-2.017,6.187-4.807,0-3.339-2.2-4.525-6.667-6.469L64.7,49.558c-7.064-3-11.762-6.751-11.762-14.683,0-7.309,5.6-12.872,14.34-12.872,6.227,0,10.7,2.156,13.927,7.8l-7.625,4.874c-1.677-3-3.491-4.176-6.3-4.176-2.869,0-4.686,1.811-4.686,4.176,0,2.924,1.82,4.107,6.02,5.917l2.448,1.043c8.326,3.546,13.021,7.167,13.021,15.307,0,8.771-6.927,13.579-16.226,13.579-9.1,0-14.261-4.565-17.136-10.215Zm-35.14.249c1.535,2.748,3.867,4.862,7.222,4.862,3.209,0,5.056-1.268,5.056-6.2V22H45.663V55.669c0,10.212-5.923,14.859-14.574,14.859A17.738,17.738,0,0,1,15.333,60.313Z" transform="translate(18.974 32.528)" fill="#fff"/>
  </g>
</svg>
