<svg xmlns="http://www.w3.org/2000/svg" width="490.853" height="210.313" viewBox="0 0 490.853 210.313">
  <g id="undraw_Code_thinking_re_gka2" transform="translate(0 0)">
    <path id="Контур_32" data-name="Контур 32" d="M265.172,470.184a4.7,4.7,0,1,1,9.347.617l13.492,17.669a6.542,6.542,0,0,1-.884,7.183l-1.058,1.235-4.856-.971-5.5-4.856.648-5.5-6.8-10.684.009-.008A4.692,4.692,0,0,1,265.172,470.184Z" transform="translate(117.936 -352.856)" fill="#ffb9b9"/>
    <path id="Контур_33" data-name="Контур 33" d="M57.018,400.831l2.2-8.18-30.5-12.387-3.25,12.072Z" transform="translate(419.367 -197.123)" fill="#ffb8b8"/>
    <path id="Контур_34" data-name="Контур 34" d="M100.857,634.51l7.1-26.374-.334-.09a10.632,10.632,0,0,0-13.03,7.5h0l-4.337,16.109Z" transform="translate(382.895 -426.582)" fill="#2f2e41"/>
    <path id="Контур_35" data-name="Контур 35" d="M122.271,383.9l6.851-4.982-15.956-28.8-10.111,7.353Z" transform="translate(312.099 -181.497)" fill="#ffb8b8"/>
    <path id="Контур_36" data-name="Контур 36" d="M161.727,646.036l22.09-16.065-.2-.279a10.632,10.632,0,0,0-14.851-2.346h0l-13.492,9.812Z" transform="translate(275.725 -435.723)" fill="#2f2e41"/>
    <path id="Контур_37" data-name="Контур 37" d="M215.323,547.689l17.239-16.747a8.706,8.706,0,0,1,11.4-.637l32.55,36.161L273.6,571l-31.08-21.044-21.044,27.519L201.4,567.438Z" transform="translate(160.813 -385.527)" fill="#2f2e41"/>
    <path id="Контур_38" data-name="Контур 38" d="M259.211,570l12.626-.971,9.144-2.217a4.7,4.7,0,1,1,.891,6.1v.007l-5.5,2.266-23.634,8.094-2.914-2.266Z" transform="translate(124.396 -404.276)" fill="#ffb9b9"/>
    <path id="Контур_39" data-name="Контур 39" d="M49.971,379.064l7.123,4.533h8.418l39.174-14.569,57.3,10.36,1.619-12.3L111.16,344.1,65.187,359.315Z" transform="translate(303.178 -178.376)" fill="#2f2e41"/>
    <circle id="Эллипс_6" data-name="Эллипс 6" cx="12.626" cy="12.626" r="12.626" transform="translate(355.774 96.764)" fill="#ffb9b9"/>
    <path id="Контур_40" data-name="Контур 40" d="M277.362,525.334a72.545,72.545,0,0,0,3.558,22.438l.946,2.909L286.4,571.4l4.856,1.295,3.561-4.532,7.123-5.18,5.18-8.417,4.442-7.4,1.386-2.312,4.856-24.281,18.454-10.36,6.151-.971-1.295-3.561-5.5-7.446-5.5-.648-1.619-1.295-1.295.647-7.139,2.75-23.145-9.779-3.386.554-11.655,9.713A72.482,72.482,0,0,0,277.362,525.334Z" transform="translate(58.365 -365.532)" fill="#ccc"/>
    <path id="Контур_41" data-name="Контур 41" d="M240.209,309.223l12.3,8.094,18.363,16.557,1.386-2.311,3.885-19.425h-.971l-10.036-18.454Z" transform="translate(99.057 -152.241)" opacity="0.1"/>
    <path id="Контур_42" data-name="Контур 42" d="M244.3,289.649,254.336,308.1l5.828,6.475,5.18,1.3-13.921,15.216-19.749-17.806-12.3-8.094Z" transform="translate(119.892 -150.15)" fill="#ccc"/>
    <path id="Контур_43" data-name="Контур 43" d="M343.712,428.638l1.368.526a1.91,1.91,0,0,0,.511-2.652l-.022-.032,2.528-.118a19.09,19.09,0,0,0-28.5-2.3c-.115-.4-1.37.375-1.882,1.157-.172-.645-1.349,2.473-1.765,4.677-.193-.734-.933.451-.284,1.588-.411-.06-.6.992-.279,1.578-.45-.211-.374,1.044.114,1.884-.642-.057.055,13.163,9.687,12.2.671-3.081.482-2.89,1.271-6.852.368-.39.77-.745,1.172-1.1l2.173-1.918c2.527-2.231,4.826-4.984,8.193-5.818,2.314-.573,3.777-.7,2.516-3.309,1.139.475,2.2,1.182,3.352,1.624C343.851,429.411,343.69,429,343.712,428.638Z" transform="translate(34.509 -328.636)" fill="#2f2e41"/>
    <circle id="Эллипс_7" data-name="Эллипс 7" cx="2.266" cy="2.266" r="2.266" transform="translate(359.824 108.581)" fill="#ffb9b9"/>
    <rect id="Прямоугольник_15" data-name="Прямоугольник 15" width="8.936" height="11.696" transform="translate(457.352 67.708) rotate(-93.81)" fill="#e6e6e6"/>
    <path id="Контур_44" data-name="Контур 44" d="M135.21,362.131l-12.61.84.84,12.61,12.61-.84Zm-12.025,1.352,11.514-.767.767,11.513L123.952,375Z" transform="translate(339.226 -299.294)" fill="#ccc"/>
    <rect id="Прямоугольник_16" data-name="Прямоугольник 16" width="13.765" height="5.214" transform="matrix(-0.978, -0.21, 0.21, -0.978, 419.225, 36.705)" fill="#e6e6e6"/>
    <path id="Контур_45" data-name="Контур 45" d="M222.278,276.51l-2.655,12.356,12.356,2.655,2.655-12.356Zm-2,11.934,2.424-11.282,11.282,2.424-2.424,11.282Z" transform="translate(193.915 -254.909)" fill="#ccc"/>
    <rect id="Прямоугольник_17" data-name="Прямоугольник 17" width="11.065" height="9.706" transform="translate(420.703 90.075) rotate(-136.873)" fill="#e6e6e6"/>
    <path id="Контур_46" data-name="Контур 46" d="M216.724,376.069l9.224,8.639,8.64-9.224-9.224-8.64Zm9.2,7.863-8.422-7.888,7.888-8.422,8.422,7.888Z" transform="translate(195.357 -301.738)" fill="#ccc"/>
    <path id="Контур_47" data-name="Контур 47" d="M405.029,231.659h307.94a8.476,8.476,0,0,1,8.476,8.476V411.711a8.476,8.476,0,0,1-8.476,8.476H405.029a8.476,8.476,0,0,1-8.476-8.476V240.135a8.476,8.476,0,0,1,8.476-8.476Z" transform="translate(-377.961 -231.659)" fill="#3f3d56"/>
    <rect id="Прямоугольник_18" data-name="Прямоугольник 18" width="302.162" height="170.45" transform="translate(29.958 14.979)" fill="#fff"/>
    <circle id="Эллипс_8" data-name="Эллипс 8" cx="3.099" cy="3.099" r="3.099" transform="translate(178.144 4.132)" fill="#fff"/>
    <path id="Контур_48" data-name="Контур 48" d="M329.89,201.552H545.639V31.1Z" transform="translate(-213.581 -16.123)" fill="#f2f2f2"/>
    <circle id="Эллипс_9" data-name="Эллипс 9" cx="29.045" cy="29.045" r="29.045" transform="translate(255.709 114.585)" fill="#6c63ff"/>
    <path id="Контур_49" data-name="Контур 49" d="M492.854,497.436a36.129,36.129,0,1,0-36.129-36.129,36.129,36.129,0,0,0,36.129,36.129Zm0-71.785A35.657,35.657,0,1,1,457.2,461.307a35.657,35.657,0,0,1,35.656-35.656Z" transform="translate(-214.565 -331.977)" fill="#3f3d56"/>
    <rect id="Прямоугольник_19" data-name="Прямоугольник 19" width="28.225" height="5.898" transform="translate(99.876 103.533)" fill="#3f3d56"/>
    <rect id="Прямоугольник_20" data-name="Прямоугольник 20" width="81.632" height="2.528" transform="translate(73.204 71.581)" fill="#3f3d56"/>
    <rect id="Прямоугольник_21" data-name="Прямоугольник 21" width="81.632" height="2.528" transform="translate(73.204 81.511)" fill="#3f3d56"/>
    <rect id="Прямоугольник_22" data-name="Прямоугольник 22" width="81.632" height="2.528" transform="translate(73.204 91.442)" fill="#3f3d56"/>
    <rect id="Прямоугольник_23" data-name="Прямоугольник 23" width="11.796" height="11.796" transform="translate(51.336 25.179)" fill="#6c63ff"/>
    <path id="Контур_50" data-name="Контур 50" d="M984.78,304.387H999.1V290.064H984.78Zm13.7-.623H985.4V290.687H998.48Z" transform="translate(-938.92 -261.936)" fill="#ccc"/>
    <path id="Контур_51" data-name="Контур 51" d="M379.852,607.5h29.489v-2.125a.421.421,0,0,1,.421-.421h10.111a.421.421,0,0,1,.421.421V607.5h6.319v-2.125a.421.421,0,0,1,.421-.421h10.111a.421.421,0,0,1,.421.421h0V607.5h6.319v-2.125a.421.421,0,0,1,.421-.421h10.111a.421.421,0,0,1,.421.421h0V607.5h6.319v-2.125a.421.421,0,0,1,.421-.421h10.11a.421.421,0,0,1,.421.421V607.5h6.319v-2.125a.421.421,0,0,1,.421-.421h10.11a.421.421,0,0,1,.421.421h0V607.5H495.7v-2.125a.421.421,0,0,1,.421-.421h10.111a.421.421,0,0,1,.421.421h0V607.5h6.319v-2.125a.421.421,0,0,1,.421-.421h79.2a.421.421,0,0,1,.421.421h0V607.5h6.319v-2.125a.421.421,0,0,1,.421-.421h10.11a.421.421,0,0,1,.421.421h0V607.5h6.319v-2.125a.421.421,0,0,1,.421-.421h10.11a.421.421,0,0,1,.421.421h0V607.5h6.32v-2.125a.421.421,0,0,1,.421-.421h10.11a.421.421,0,0,1,.421.421h0V607.5h6.319v-2.125a.421.421,0,0,1,.421-.421h10.111a.421.421,0,0,1,.421.421h0V607.5h6.319v-2.125a.421.421,0,0,1,.421-.421h10.111a.421.421,0,0,1,.421.421V607.5H685.7v-2.125a.421.421,0,0,1,.421-.421h10.111a.421.421,0,0,1,.421.421h0V607.5h19.378a10.111,10.111,0,0,1,10.111,10.111v4.572a10.11,10.11,0,0,1-10.11,10.11H379.852a10.111,10.111,0,0,1-10.111-10.111v-4.572a10.111,10.111,0,0,1,10.11-10.111Z" transform="translate(-369.742 -425.169)" fill="#3f3d56"/>
  </g>
</svg>
